<svg width="176" height="176" viewBox="0 0 176 176" fill="none" xmlns="http://www.w3.org/2000/svg">
<circle cx="87.8" cy="87.8" r="87.8" fill="white"/>
<path d="M87.8 175.6C79.7224 175.6 71.9375 174.546 64.4452 172.439C56.9529 170.331 49.9582 167.376 43.461 163.571C36.9638 159.767 31.0519 155.201 25.7254 149.875C20.3989 144.549 15.8333 138.636 12.0286 132.139C8.22393 125.641 5.268 118.647 3.1608 111.155C1.0536 103.663 0 95.8776 0 87.8C0 79.7224 1.0536 71.9375 3.1608 64.4452C5.268 56.9529 8.22393 49.9582 12.0286 43.461C15.8333 36.9638 20.3989 31.0519 25.7254 25.7254C31.0519 20.3989 36.9638 15.8333 43.461 12.0286C49.9582 8.22393 56.9529 5.268 64.4452 3.1608C71.9375 1.0536 79.7224 0 87.8 0C99.8579 0 111.243 2.31207 121.954 6.9362C132.666 11.5603 141.973 17.8234 149.875 25.7254C157.777 33.6274 164.04 42.9342 168.664 53.6458C173.288 64.3574 175.6 75.7421 175.6 87.8C175.6 95.8776 174.546 103.663 172.439 111.155C170.331 118.646 167.376 125.641 163.571 132.139C159.767 138.636 155.201 144.548 149.875 149.875C144.549 155.201 138.636 159.768 132.139 163.571C125.641 167.376 118.647 170.332 111.154 172.439C103.663 174.546 95.8776 175.6 87.8 175.6ZM130.12 51.6264H46.8852C46.0657 51.6264 45.3633 51.8898 44.778 52.4166C44.1927 52.9434 43.9 53.6751 43.9 54.6116V63.9184C43.9 64.3867 44.0756 64.6208 44.4268 64.6208L88.1512 89.556L88.5033 89.7316C88.7365 89.7316 88.913 89.6731 89.0301 89.556L131.35 64.6208C131.583 64.5037 131.759 64.4452 131.876 64.4452C131.993 64.4452 132.169 64.3867 132.403 64.2696C132.872 64.2696 133.106 64.0355 133.106 63.5672V54.6116C133.106 53.6751 132.813 52.9434 132.227 52.4166C131.641 51.8898 130.939 51.6264 130.12 51.6264ZM70.4156 89.0292C70.5327 88.9121 70.5912 88.7362 70.5912 88.5024C70.5912 88.1503 70.4741 87.9756 70.24 87.9756L45.1292 73.5761C44.778 73.4591 44.4853 73.4591 44.2512 73.5761C44.0171 73.5761 43.9 73.7517 43.9 74.1029V111.857C43.9 112.209 44.0756 112.442 44.4268 112.559H44.778C45.0121 112.559 45.1292 112.501 45.1292 112.384L70.4156 89.0292ZM100.97 91.8388C100.853 91.4867 100.559 91.4291 100.091 91.6632L90.4331 97.2824C89.2625 97.9848 88.0341 97.9848 86.7455 97.2824L78.3167 92.5421C77.9655 92.3079 77.6729 92.3079 77.4387 92.5421L45.3039 122.394C45.1869 122.51 45.1283 122.745 45.1283 123.096C45.1283 123.213 45.2454 123.389 45.4795 123.622C46.1819 123.857 46.6502 123.974 46.8843 123.974H129.241C129.475 123.974 129.71 123.857 129.943 123.622C129.943 123.154 129.885 122.862 129.768 122.744L100.97 91.8388ZM132.578 72.874H131.876L107.995 87.0976C107.762 87.0976 107.644 87.2732 107.644 87.6244C107.527 87.7415 107.585 87.9171 107.818 88.1503L131.7 113.964C131.934 114.199 132.11 114.316 132.227 114.316H132.578C132.93 113.964 133.106 113.731 133.106 113.614V73.5767C133.105 73.3423 132.929 73.1081 132.578 72.874Z" fill="#009B64"/>
</svg>
