<svg width="176" height="177" viewBox="0 0 176 177" fill="none" xmlns="http://www.w3.org/2000/svg">
<ellipse cx="87.8" cy="88.25" rx="87.8" ry="88.25" fill="white"/>
<path d="M163.823 44.825C155.971 31.0354 145.322 20.1181 131.87 12.0707C118.417 4.02287 103.73 0 87.7994 0C71.8705 0 57.1789 4.02411 43.7285 12.0707C30.2762 20.1177 19.6268 31.0354 11.7754 44.825C3.92527 58.6143 0 73.6723 0 89.9985C0 109.61 5.58179 127.245 16.7482 142.909C27.9133 158.573 42.3371 169.413 60.0182 175.428C62.0764 175.819 63.6 175.544 64.5906 174.609C65.5816 173.672 66.0765 172.499 66.0765 171.094C66.0765 170.86 66.0569 168.751 66.0189 164.766C65.9796 160.781 65.9612 157.305 65.9612 154.338L63.3317 154.805C61.6551 155.119 59.5401 155.253 56.9867 155.215C54.4344 155.178 51.7849 154.904 49.0417 154.395C46.2972 153.889 43.7446 152.717 41.3817 150.881C39.0201 149.045 37.3435 146.642 36.3525 143.675L35.2093 140.979C34.4473 139.183 33.2477 137.189 31.6088 135.003C29.9699 132.815 28.3126 131.331 26.636 130.55L25.8356 129.963C25.3022 129.573 24.8073 129.102 24.3496 128.556C23.8924 128.009 23.55 127.462 23.3214 126.915C23.0923 126.367 23.2821 125.918 23.8928 125.565C24.5034 125.212 25.607 125.041 27.2082 125.041L29.4938 125.391C31.0182 125.704 32.9037 126.64 35.1529 128.203C37.4008 129.766 39.2487 131.796 40.697 134.295C42.4508 137.499 44.5638 139.941 47.042 141.621C49.5182 143.301 52.0147 144.139 54.5293 144.139C57.044 144.139 59.2158 143.944 61.0457 143.555C62.8736 143.164 64.5886 142.577 66.1898 141.796C66.8757 136.56 68.7433 132.537 71.7908 129.725C67.4471 129.257 63.5419 128.552 60.0731 127.615C56.6063 126.677 53.0238 125.154 49.3279 123.043C45.6301 120.934 42.5625 118.316 40.1244 115.192C37.6859 112.067 35.6846 107.964 34.1234 102.887C32.5614 97.8083 31.7802 91.9494 31.7802 85.3091C31.7802 75.8542 34.7913 67.8085 40.8123 61.1673C37.9918 54.0591 38.2581 46.0905 41.6119 37.2624C43.8222 36.5585 47.1 37.0867 51.4437 38.8439C55.7882 40.6019 58.9691 42.1078 60.9896 43.3564C63.0101 44.6046 64.629 45.6624 65.8487 46.5202C72.938 44.4897 80.254 43.4742 87.7986 43.4742C95.3433 43.4742 102.661 44.4897 109.751 46.5202L114.095 43.709C117.065 41.8332 120.573 40.1142 124.61 38.5516C128.65 36.9898 131.739 36.5597 133.874 37.2636C137.302 46.0921 137.607 54.0603 134.786 61.1686C140.807 67.8097 143.819 75.8575 143.819 85.3103C143.819 91.9507 143.035 97.828 141.475 102.946C139.914 108.065 137.895 112.164 135.419 115.251C132.94 118.338 129.853 120.936 126.157 123.044C122.461 125.154 118.877 126.676 115.41 127.615C111.942 128.553 108.036 129.258 103.693 129.727C107.654 133.241 109.636 138.789 109.636 146.366V171.091C109.636 172.496 110.112 173.668 111.066 174.605C112.019 175.541 113.523 175.816 115.581 175.424C133.265 169.41 147.688 158.57 158.853 142.905C170.017 127.242 175.6 109.607 175.6 89.9953C175.596 73.671 171.669 58.6143 163.823 44.825Z" fill="#009B64"/>
</svg>
