<svg width="176" height="176" viewBox="0 0 176 176" fill="none" xmlns="http://www.w3.org/2000/svg">
<ellipse cx="87.8" cy="87.8" rx="87.8" ry="87.8" fill="#009B64"/>
<g clip-path="url(#clip0)">
<path d="M46.5644 48.8567H46.5424C45.3449 48.8567 44.3744 49.8291 44.3744 51.0289C44.3744 52.2287 45.3449 53.2011 46.5424 53.2011H46.5644C47.7618 53.2011 48.7323 52.2287 48.7323 51.0289C48.7323 49.8291 47.7618 48.8567 46.5644 48.8567Z" fill="white"/>
<path d="M57.3025 48.8567H57.2805C56.0831 48.8567 55.1125 49.8291 55.1125 51.0289C55.1125 52.2287 56.0831 53.2011 57.2805 53.2011H57.3025C58.5 53.2011 59.4705 52.2287 59.4705 51.0289C59.4705 49.8291 58.5 48.8567 57.3025 48.8567Z" fill="white"/>
<path d="M68.0408 48.8567H68.0188C66.8213 48.8567 65.8508 49.8291 65.8508 51.0289C65.8508 52.2287 66.8213 53.2011 68.0188 53.2011H68.0408C69.2383 53.2011 70.2088 52.2287 70.2088 51.0289C70.2088 49.8291 69.2383 48.8567 68.0408 48.8567Z" fill="white"/>
<path d="M128.325 48.8567H86.4982C85.3007 48.8567 84.3302 49.8291 84.3302 51.0289C84.3302 52.2279 85.3007 53.2011 86.4982 53.2011H128.325C129.522 53.2011 130.493 52.2279 130.493 51.0289C130.493 49.8291 129.522 48.8567 128.325 48.8567Z" fill="white"/>
<path d="M88.9939 136.623C88.424 136.623 87.8667 136.856 87.4611 137.26C87.058 137.664 86.8259 138.225 86.8259 138.796C86.8259 139.367 87.058 139.928 87.4611 140.331C87.8667 140.735 88.424 140.968 88.9939 140.968C89.5638 140.968 90.1236 140.735 90.5267 140.331C90.9315 139.928 91.1619 139.367 91.1619 138.796C91.1619 138.225 90.9315 137.664 90.5267 137.26C90.1236 136.856 89.5638 136.623 88.9939 136.623Z" fill="white"/>
<path d="M136.112 37H38.8875C35.0902 37 32 40.0962 32 43.901V132.614C32 136.419 35.0902 139.515 38.8875 139.515H79.9121C81.1096 139.515 82.0801 138.542 82.0801 137.343C82.0801 136.143 81.1096 135.17 79.9121 135.17H38.8875C37.4809 135.17 36.3359 134.024 36.3359 132.614V62.1518H138.664V132.614C138.664 134.023 137.519 135.17 136.112 135.17H97.8343C96.6368 135.17 95.6663 136.143 95.6663 137.343C95.6663 138.542 96.6368 139.515 97.8343 139.515H136.112C139.91 139.515 143 136.419 143 132.614V43.901C143 40.0962 139.91 37 136.112 37V37ZM36.3359 57.8066V43.901C36.3359 42.4916 37.4809 41.3444 38.8875 41.3444H136.112C137.519 41.3444 138.664 42.4916 138.664 43.901V57.8074H36.3359V57.8066Z" fill="white"/>
<path d="M70.5983 88.414C70.5983 84.1018 67.0974 80.594 62.7936 80.594H55.4945C54.297 80.594 53.3265 81.5664 53.3265 82.7662V105.357C53.3265 106.557 54.297 107.529 55.4945 107.529H62.7936C67.0974 107.529 70.5983 104.022 70.5983 99.7095C70.5983 97.4906 69.6701 95.4864 68.1831 94.0617C69.6701 92.637 70.5983 90.6328 70.5983 88.414ZM66.2624 99.7095C66.2624 101.625 64.7058 103.185 62.7936 103.185H57.6625V96.2339H62.7936C64.7058 96.2339 66.2624 97.7926 66.2624 99.7095ZM57.6625 91.8895V84.9384H62.7936C64.7067 84.9384 66.2624 86.498 66.2624 88.414C66.2624 90.3299 64.7067 91.8895 62.7936 91.8895H57.6625Z" fill="white"/>
<path d="M76.8007 80.594C75.6032 80.594 74.6327 81.5664 74.6327 82.7662V100.333C74.6327 104.302 77.855 107.529 81.8149 107.529C83.0124 107.529 83.9829 106.557 83.9829 105.357C83.9829 104.157 83.0124 103.185 81.8149 103.185C80.2457 103.185 78.9686 101.905 78.9686 100.333V82.7662C78.9686 81.5664 77.9981 80.594 76.8007 80.594V80.594Z" fill="white"/>
<path d="M102.43 99.6636C102.43 95.326 98.9089 91.797 94.5798 91.797C90.2506 91.797 86.7294 95.326 86.7294 99.6636C86.7294 104.001 90.2515 107.529 94.5798 107.529C98.9089 107.529 102.43 104.001 102.43 99.6636ZM91.0653 99.6636C91.0653 97.7214 92.6422 96.1414 94.5798 96.1414C96.5174 96.1414 98.0943 97.7214 98.0943 99.6636C98.0943 101.605 96.5183 103.185 94.5798 103.185C92.6413 103.185 91.0653 101.605 91.0653 99.6636Z" fill="white"/>
<path d="M113.822 113.612C111.885 113.612 110.308 112.032 110.308 110.09C110.308 108.89 109.337 107.918 108.14 107.918C106.942 107.918 105.972 108.89 105.972 110.09C105.972 114.428 109.494 117.956 113.822 117.956C118.151 117.956 121.673 114.428 121.673 110.09V99.6636C121.673 95.326 118.151 91.797 113.822 91.797C109.494 91.797 105.972 95.326 105.972 99.6636C105.972 104.001 109.494 107.529 113.822 107.529C115.086 107.529 116.279 107.227 117.338 106.694V110.09C117.338 112.032 115.761 113.612 113.822 113.612V113.612ZM113.822 103.185C111.885 103.185 110.308 101.605 110.308 99.6636C110.308 97.7214 111.885 96.1414 113.822 96.1414C115.761 96.1414 117.338 97.7214 117.338 99.6636C117.338 101.605 115.761 103.185 113.822 103.185V103.185Z" fill="white"/>
<path d="M55.4945 128.817H119.505C120.703 128.817 121.673 127.845 121.673 126.645C121.673 125.445 120.703 124.473 119.505 124.473H55.4945C54.2979 124.473 53.3265 125.445 53.3265 126.645C53.3265 127.845 54.2979 128.817 55.4945 128.817V128.817Z" fill="white"/>
</g>
<defs>
<clipPath id="clip0">
<rect x="32" y="34" width="111" height="111" fill="white"/>
</clipPath>
</defs>
</svg>
