<svg width="176" height="176" viewBox="0 0 176 176" fill="none" xmlns="http://www.w3.org/2000/svg">
<circle cx="87.8" cy="87.8" r="87.8" fill="white"/>
<path d="M87.8 0C39.3168 0 0 39.3168 0 87.8C0 136.283 39.3168 175.6 87.8 175.6C136.283 175.6 175.6 136.283 175.6 87.8C175.6 39.3168 136.283 0 87.8 0ZM62.2863 132.729H40.903V68.3968H62.2863V132.729ZM51.5954 59.6123H51.456C44.2805 59.6123 39.6397 54.6727 39.6397 48.4993C39.6397 42.1865 44.4225 37.3836 51.7374 37.3836C59.0523 37.3836 63.5537 42.1865 63.6931 48.4993C63.6931 54.6727 59.0523 59.6123 51.5954 59.6123ZM139.39 132.729H118.009V98.3128C118.009 89.6636 114.913 83.7648 107.176 83.7648C101.27 83.7648 97.7515 87.7437 96.2054 91.5847C95.6401 92.9593 95.5021 94.8804 95.5021 96.8029V132.729H74.1201C74.1201 132.729 74.4001 74.4323 74.1201 68.3968H95.5021V77.5056C98.3436 73.122 103.428 66.8869 114.773 66.8869C128.841 66.8869 139.39 76.0815 139.39 95.841V132.729Z" fill="#009B64"/>
</svg>
