<svg width="176" height="177" viewBox="0 0 176 177" fill="none" xmlns="http://www.w3.org/2000/svg">
<ellipse cx="87.8" cy="88.8" rx="87.8" ry="87.8" fill="white"/>
<path d="M78.84 0.691772C68.6601 1.77257 59.2166 4.45294 50.2497 8.81936C31.0162 18.1142 18.1505 30.7812 8.70705 49.7167C4.93833 57.2823 2.29589 65.0208 0.996329 72.2405C0.129956 76.8231 0 79.1144 0 88.1931C0 97.4015 0.129956 99.5198 1.03965 104.405C4.72174 124.854 16.7643 144.567 33.572 157.667C43.6219 165.492 57.6572 172.063 69.0933 174.397C84.0815 177.424 101.409 176.602 114.491 172.236C120.079 170.377 129.826 165.708 135.154 162.336C146.071 155.462 156.814 144.395 163.355 133.284C168.683 124.248 172.928 113.224 174.401 104.405C176.177 93.9862 175.96 79.8061 173.881 69.5169C171.629 58.2766 164.221 42.8428 156.51 33.4183C147.847 22.6968 137.45 14.6557 124.541 8.51674C112.629 2.85337 103.618 0.821468 89.4531 0.64854C84.558 0.562076 79.793 0.605308 78.84 0.691772ZM49.9464 39.8598C50.2497 40.1625 50.4663 41.2 50.4663 42.1944C50.4663 43.9669 50.4663 44.0101 52.5022 44.4857C55.3613 45.2206 56.9641 46.1717 56.9641 47.0796C56.9641 48.3333 55.7078 51.0137 55.0147 51.3163C54.6682 51.446 53.5852 51.2298 52.6322 50.8407C50.0764 49.8464 46.351 49.9329 45.268 51.0137C43.2754 53.0023 44.4016 54.5155 49.8165 57.0661C54.7115 59.4439 56.8774 61.3893 57.7438 64.3723C58.3936 66.4474 58.3936 67.6147 57.7871 69.8195C57.224 71.9379 53.6285 75.5694 51.7658 75.9585C50.5096 76.1746 50.4663 76.3043 50.4663 78.4227C50.4663 81.1463 49.9897 81.7083 47.6505 81.7083C45.3546 81.7083 44.8348 81.1463 44.8348 78.5956C44.8348 76.6934 44.7482 76.5205 43.7519 76.5205C42.1924 76.5205 37.9905 74.8344 37.514 74.0563C37.0375 73.1916 38.0338 70.0357 39.0734 69.3008C39.5933 68.8684 40.1131 68.9549 41.5426 69.6898C42.8422 70.3816 44.0984 70.6409 46.2643 70.6842C48.9934 70.6842 49.34 70.5977 50.293 69.4737C52.4589 66.9662 51.2027 65.237 45.0514 62.2972C41.9758 60.7841 40.243 59.66 39.5066 58.7089C38.337 57.1526 37.4707 54.8613 37.4707 53.4347C37.4707 50.1923 39.9398 46.604 43.1021 45.1774C44.7482 44.4424 44.8348 44.3127 44.8348 42.3673C44.8348 39.9031 45.3546 39.3411 47.6505 39.3411C48.6469 39.3411 49.6432 39.5572 49.9464 39.8598ZM85.771 78.7253C85.9009 78.8982 86.1175 79.6764 86.2475 80.4978C86.724 83.3943 86.6373 83.4376 72.6021 83.4376C63.5052 83.4376 60.0397 83.3079 59.6498 82.9188C58.9134 82.1839 59 79.7196 59.8231 78.8982C60.4295 78.293 61.989 78.2065 72.992 78.3362C79.8796 78.4227 85.5977 78.5956 85.771 78.7253Z" fill="#009B64"/>
</svg>
